HIERARCHY
ROOT Hips
{
	OFFSET 0.000000 0.000000 0.000000
	CHANNELS 6 Xposition Yposition Zposition Xrotation Yrotation Zrotation
	JOINT LeftUpLeg_virtual
	{
		OFFSET 0.000000 0.000000 0.000000
		CHANNELS 3 Xrotation Yrotation Zrotation
		JOINT LeftUpLeg
		{
			OFFSET 11.394100 -6.187798 -0.413800
			CHANNELS 3 Xrotation Yrotation Zrotation
			JOINT LeftLeg
			{
				OFFSET 0.430247 -32.302673 3.732800
				CHANNELS 3 Xrotation Yrotation Zrotation
				JOINT LeftFoot
				{
					OFFSET -0.430247 -48.264931 -6.423300
					CHANNELS 3 Xrotation Yrotation Zrotation
					JOINT LeftToeBase
					{
						OFFSET 4.230900 -16.068199 23.438400
						CHANNELS 3 Xrotation Yrotation Zrotation
						JOINT LeftToe_End
						{
							OFFSET 4.510700 0.695400 19.974600
							CHANNELS 3 Xrotation Yrotation Zrotation
							End Site
							{
								OFFSET 0 0 0
							}
						}
					}
				}
			}
		}
	}
	JOINT RightUpLeg_virtual
	{
		OFFSET 0.000000 0.000000 0.000000
		CHANNELS 3 Xrotation Yrotation Zrotation
		JOINT RightUpLeg
		{
			OFFSET -11.333700 -6.187798 -0.413800
			CHANNELS 3 Xrotation Yrotation Zrotation
			JOINT RightLeg
			{
				OFFSET -0.430392 -32.302628 3.733000
				CHANNELS 3 Xrotation Yrotation Zrotation
				JOINT RightFoot
				{
					OFFSET 0.430392 -48.264973 -6.423500
					CHANNELS 3 Xrotation Yrotation Zrotation
					JOINT RightToeBase
					{
						OFFSET -4.230900 -16.068199 23.438400
						CHANNELS 3 Xrotation Yrotation Zrotation
						JOINT RightToe_End
						{
							OFFSET -4.510700 0.695400 19.974600
							CHANNELS 3 Xrotation Yrotation Zrotation
							End Site
							{
								OFFSET 0 0 0
							}
						}
					}
				}
			}
		}
	}
	JOINT Spine_virtual
	{
		OFFSET 0.000000 0.000000 0.000000
		CHANNELS 3 Xrotation Yrotation Zrotation
		JOINT Spine
		{
			OFFSET -0.002400 12.777504 0.315300
			CHANNELS 3 Xrotation Yrotation Zrotation
			JOINT Spine1
			{
				OFFSET -0.002067 5.816869 0.032633
				CHANNELS 3 Xrotation Yrotation Zrotation
				JOINT Spine1_split
				{
					OFFSET -0.002067 5.816869 0.032633
					CHANNELS 3 Xrotation Yrotation Zrotation
					JOINT Spine2
					{
						OFFSET -0.002067 5.816869 0.032633
						CHANNELS 3 Xrotation Yrotation Zrotation
						JOINT Neck_virtual
						{
							OFFSET 0.000000 0.000000 0.000000
							CHANNELS 3 Xrotation Yrotation Zrotation
							JOINT Neck
							{
								OFFSET -0.003700 21.199493 -0.826900
								CHANNELS 3 Xrotation Yrotation Zrotation
								JOINT Head
								{
									OFFSET 0.000000 20.442200 4.834800
									CHANNELS 3 Xrotation Yrotation Zrotation
									JOINT HeadTop_End
									{
										OFFSET 0.000000 34.668396 4.968400
										CHANNELS 3 Xrotation Yrotation Zrotation
										End Site
										{
											OFFSET 0 0 0
										}
									}
								}
							}
						}
						JOINT LeftShoulder_virtual
						{
							OFFSET 0.000000 0.000000 0.000000
							CHANNELS 3 Xrotation Yrotation Zrotation
							JOINT LeftShoulder
							{
								OFFSET 3.288150 8.794197 -1.372250
								CHANNELS 3 Xrotation Yrotation Zrotation
								JOINT LeftShoulder_split
								{
									OFFSET 3.288150 8.794197 -1.372250
									CHANNELS 3 Xrotation Yrotation Zrotation
									JOINT LeftArm
									{
										OFFSET 11.953299 -2.279007 -0.146200
										CHANNELS 3 Xrotation Yrotation Zrotation
										JOINT LeftForeArm
										{
											OFFSET 18.448900 0.000000 0.000000
											CHANNELS 3 Xrotation Yrotation Zrotation
											JOINT LeftHand
											{
												OFFSET 29.527798 0.000000 0.000000
												CHANNELS 3 Xrotation Yrotation Zrotation
												End Site
												{
													OFFSET 0 0 0
												}
											}
										}
									}
								}
							}
						}
						JOINT RightShoulder_virtual
						{
							OFFSET 0.000000 0.000000 0.000000
							CHANNELS 3 Xrotation Yrotation Zrotation
							JOINT RightShoulder
							{
								OFFSET -3.249400 8.794197 -1.372250
								CHANNELS 3 Xrotation Yrotation Zrotation
								JOINT RightShoulder_split
								{
									OFFSET -3.249400 8.794197 -1.372250
									CHANNELS 3 Xrotation Yrotation Zrotation
									JOINT RightArm
									{
										OFFSET -11.953299 -2.279007 -0.146200
										CHANNELS 3 Xrotation Yrotation Zrotation
										JOINT RightForeArm
										{
											OFFSET -18.448900 0.000000 0.000000
											CHANNELS 3 Xrotation Yrotation Zrotation
											JOINT RightHand
											{
												OFFSET -29.527802 0.000000 0.000000
												CHANNELS 3 Xrotation Yrotation Zrotation
												End Site
												{
													OFFSET 0 0 0
												}
											}
										}
									}
								}
							}
						}
					}
				}
			}
		}
	}
}
MOTION
Frames: 4
Frame Time: 0.03333333
4.260207 102.684074 -4.429945 0.000000 0.000000 0.000000 -2.009263 11.238007 -1.316756 -39.277672 -10.756282 1.719349 45.591728 8.142216 -3.603324 34.130288 -3.689304 5.125857 -26.202670 2.471477 -3.495544 0.000000 0.000000 0.000000 -3.425512 11.613191 -0.843620 -17.396681 -7.928632 3.946012 30.709640 -0.991302 -1.615315 4.679316 -12.783844 -2.935594 -17.489864 3.645022 -10.369711 0.000000 0.000000 0.000000 -4.523889 14.270556 -0.520298 9.591759 -1.328018 -0.393962 0.779828 -0.272262 1.311452 0.098529 -0.192686 0.041091 0.000000 0.000000 0.000000 -0.099583 1.978933 2.385856 -12.549552 9.124783 11.420027 5.744170 -22.919987 -29.957077 0.000000 0.000000 0.000000 0.833474 0.393741 2.164957 -1.512842 1.345619 -8.077727 0.323206 -3.021062 -2.378758 2.465252 -6.932082 -65.638610 33.076427 -27.001491 3.540774 0.000000 0.000000 0.000000 1.318204 0.371931 1.982460 -4.114343 1.678356 15.255516 -22.854764 -6.075372 1.622169 12.576765 9.484661 55.390659 -1.082551 28.118579 26.421211 0.000000 0.000000 0.000000 
4.243130 103.227783 -2.045002 0.000000 0.000000 0.000000 -1.962763 10.159695 -1.251715 -39.313811 -9.534405 0.415153 38.285403 10.446516 -2.909147 29.018291 -2.520406 7.800249 -22.596902 2.857714 -4.429132 0.000000 0.000000 0.000000 -2.742901 9.631300 -0.801267 -16.616780 -8.053479 3.720776 30.449526 -0.828880 -1.429797 5.916437 -12.453384 -3.851540 -19.149392 3.618542 -9.618198 0.000000 0.000000 0.000000 -3.328863 13.031128 -1.025943 8.939967 -0.926650 -0.182044 0.724128 -0.279684 1.243450 0.009284 -0.248222 0.058306 0.000000 0.000000 0.000000 -0.095766 1.997604 2.235729 -12.689544 8.878993 11.347479 5.920675 -23.276247 -30.042181 0.000000 0.000000 0.000000 0.866544 0.402232 2.210579 -1.519002 1.646087 -8.114412 -0.460103 -3.349991 -2.704486 3.169048 -6.293268 -65.408753 33.101241 -26.800774 3.733913 0.000000 0.000000 0.000000 1.208193 0.382407 1.870901 -4.068817 1.843185 14.362937 -22.867651 -5.688547 0.952600 11.837297 10.110102 55.716534 -2.261064 30.949800 26.748959 0.000000 0.000000 0.000000 
4.288851 104.148140 0.877491 0.000000 0.000000 0.000000 -1.868670 8.226092 -0.935281 -40.069045 -6.264463 -0.608182 29.187150 11.999769 -0.875007 26.421313 -2.011330 7.405252 -14.399733 2.546802 -4.209595 0.000000 0.000000 0.000000 -2.251319 6.767786 -0.576265 -14.935716 -8.739877 3.070944 29.357946 0.170467 -1.173671 7.218074 -10.517260 -4.399760 -22.268082 4.068929 -8.959904 0.000000 0.000000 0.000000 -2.270157 11.144744 -1.351387 8.529591 -0.184325 0.199030 0.738310 -0.232351 1.148095 -0.035264 -0.430155 0.096664 0.000000 0.000000 0.000000 -0.081587 2.046833 2.155959 -12.917146 8.737718 11.134282 5.638767 -23.553527 -30.272945 0.000000 0.000000 0.000000 0.857265 0.414745 2.089061 -1.441565 2.240913 -8.626305 -1.110172 -4.057695 -3.192177 4.053707 -4.628321 -65.377908 33.954059 -26.606167 4.499140 0.000000 0.000000 0.000000 1.017213 0.393624 1.649003 -3.968199 2.492727 12.839730 -22.504485 -5.818565 0.841538 11.659484 11.396768 55.970678 -4.277808 33.704077 27.383417 0.000000 0.000000 0.000000 
4.422988 105.003716 3.821049 0.000000 0.000000 0.000000 -1.695121 5.827072 -0.391062 -41.922543 -1.850463 -1.300302 20.915906 11.899955 1.896371 28.332668 -2.962376 4.157764 -8.474608 1.746597 -1.507641 0.000000 0.000000 0.000000 -1.745122 3.751662 -0.237572 -12.495324 -9.844510 2.235811 27.378602 1.762535 -0.849088 7.035027 -7.473079 -5.146528 -24.544298 4.858475 -8.615893 0.000000 0.000000 0.000000 -1.534220 8.937861 -1.467136 8.402538 0.660407 0.585139 0.911336 -0.162566 1.118517 0.018057 -0.754240 0.137907 0.000000 0.000000 0.000000 -0.088225 2.079869 2.238771 -13.105107 8.732989 10.808839 4.839991 -23.842304 -30.501726 0.000000 0.000000 0.000000 0.762577 0.418739 1.906062 -1.285695 3.045945 -9.359675 -1.305976 -4.790173 -3.569998 4.936664 -2.035967 -65.611699 35.495783 -26.566929 5.692999 0.000000 0.000000 0.000000 0.836923 0.402853 1.454786 -3.872153 3.555953 11.041261 -22.004272 -6.413382 1.137869 11.819629 12.742859 56.078913 -6.610775 35.116547 28.011191 0.000000 0.000000 0.000000 
